<?xml version="1.0" standalone="no"?>
<!DOCTYPE svg PUBLIC "-//W3C//DTD SVG 20010904//EN"
 "http://www.w3.org/TR/2001/REC-SVG-20010904/DTD/svg10.dtd">
<svg version="1.0" xmlns="http://www.w3.org/2000/svg"
 width="500.000000pt" height="500.000000pt" viewBox="0 0 500.000000 500.000000"
 preserveAspectRatio="xMidYMid meet">

<g transform="translate(0.000000,500.000000) scale(0.100000,-0.100000)"
fill="#000000" stroke="none">
<path d="M2241 3407 l-93 -32 -24 -80 c-13 -44 -43 -138 -67 -210 l-44 -130
-89 -11 c-92 -11 -190 -36 -235 -59 -34 -18 -163 -152 -212 -220 -52 -75 -87
-165 -94 -245 -11 -133 56 -273 193 -406 l73 -71 -86 -129 c-47 -71 -95 -139
-106 -151 -11 -12 -17 -28 -14 -35 3 -8 46 -21 108 -32 84 -16 115 -17 170 -9
119 19 214 80 294 189 26 35 52 64 59 64 6 0 61 5 121 10 191 18 412 83 551
161 l52 29 67 -72 c37 -40 100 -113 139 -163 117 -148 181 -205 249 -222 12
-3 52 -8 90 -10 58 -5 74 -2 120 21 30 14 62 35 72 46 17 19 17 23 -10 107
-35 114 -89 220 -186 369 -44 66 -86 142 -95 168 -18 52 -22 42 57 136 113
134 223 333 288 525 40 117 40 120 21 129 -11 5 -22 7 -23 5 -2 -2 -33 -49
-68 -104 -84 -128 -200 -267 -290 -344 -38 -34 -74 -61 -78 -61 -5 0 -48 95
-96 211 -49 116 -115 256 -147 311 -66 110 -172 229 -249 278 -121 78 -263 91
-418 37z m112 -7 c-29 -12 -29 -18 2 -42 14 -11 25 -24 25 -29 0 -6 -12 -1
-26 10 -14 11 -42 25 -62 32 l-37 13 40 12 c22 7 49 13 60 13 18 0 18 -1 -2
-9z m243 -29 c117 -55 245 -202 339 -390 20 -40 35 -75 33 -77 -2 -2 -25 32
-51 76 -111 185 -253 341 -357 393 -73 36 -41 34 36 -2z m-60 -11 c151 -66
312 -268 473 -595 108 -218 211 -469 197 -482 -2 -2 -41 32 -87 74 -101 93
-232 204 -351 296 -69 54 -89 76 -101 110 -8 23 -38 108 -66 189 -50 143 -110
259 -197 379 -19 25 -30 49 -26 54 12 12 108 -2 158 -25z m-233 -16 c59 -31
95 -65 156 -146 34 -44 61 -84 61 -88 0 -8 -91 -262 -96 -269 -1 -1 -31 6 -66
17 -55 19 -122 36 -209 56 l-26 6 59 211 c51 182 62 237 44 218 -4 -3 -126
-434 -126 -443 0 -2 28 -9 63 -15 97 -19 240 -61 258 -77 8 -8 21 -14 27 -14
15 0 200 -99 208 -111 3 -5 14 -9 25 -9 37 0 317 -228 474 -385 112 -112 241
-301 295 -432 l20 -48 -22 30 c-363 480 -659 738 -1011 880 -91 37 -263 85
-302 85 -13 0 -25 5 -27 11 -6 19 -173 12 -258 -10 -132 -34 -261 -124 -312
-218 -58 -107 -57 -279 2 -400 28 -57 126 -163 151 -163 18 0 9 -39 -11 -45
-33 -11 -137 88 -203 192 -37 58 -67 154 -67 212 0 121 80 270 214 398 59 57
88 77 134 92 72 25 186 43 236 39 l36 -3 69 208 c38 114 75 215 81 223 17 19
83 18 123 -2z m287 -453 c27 -78 50 -144 50 -147 0 -2 -40 16 -90 41 -49 25
-90 51 -90 58 0 7 13 46 28 87 16 41 32 84 36 94 3 10 9 17 11 14 3 -2 27 -69
55 -147z m961 37 c-27 -79 -46 -112 -121 -213 -110 -149 -219 -273 -236 -271
-19 3 -46 60 -38 81 3 7 30 33 60 56 93 72 238 237 325 371 13 20 25 35 26 34
2 -2 -5 -27 -16 -58z m-1485 -117 c5 -5 41 -14 79 -20 429 -71 850 -374 1232
-888 153 -206 162 -234 84 -276 -57 -31 -139 -36 -197 -12 -19 8 -37 14 -39
14 -24 0 -82 54 -160 151 -51 63 -125 150 -164 193 -39 44 -70 82 -69 85 4 13
-47 82 -60 82 -7 0 -10 -4 -7 -10 17 -27 -450 -170 -617 -188 -52 -6 -63 -10
-66 -27 -2 -11 -14 -29 -26 -40 -13 -11 -37 -41 -54 -66 -47 -70 -135 -145
-200 -170 -66 -26 -176 -30 -262 -9 -49 12 -50 13 -30 27 34 24 168 190 231
285 31 48 80 134 108 192 59 121 131 326 131 374 0 56 -17 35 -30 -35 -34
-199 -203 -523 -369 -709 -54 -61 -48 -49 51 98 90 133 191 346 219 458 10 41
27 100 38 132 10 31 17 59 14 62 -4 3 -1 6 5 6 7 0 12 7 12 15 0 22 -24 19
-86 -11 -101 -47 -120 -130 -56 -233 l30 -49 -43 -97 c-24 -54 -46 -100 -49
-103 -7 -6 -67 40 -106 81 -44 47 -68 102 -86 201 -37 199 32 332 221 426 102
51 292 87 321 61z m1354 -168 c-39 -69 -105 -162 -153 -218 -30 -34 -36 -37
-42 -23 -5 12 3 30 24 55 18 21 68 84 113 141 45 56 84 102 86 102 2 0 -11
-26 -28 -57z m-1577 -241 c-16 -56 -31 -102 -34 -102 -3 0 -13 16 -22 35 -20
42 -22 93 -4 116 13 18 79 60 84 55 2 -2 -9 -49 -24 -104z m954 -319 c5 -15
-172 -102 -279 -137 -134 -45 -400 -88 -419 -69 -20 20 18 37 142 63 158 34
264 64 414 118 114 42 136 45 142 25z"/>
<path d="M2230 2485 c0 -8 2 -15 4 -15 2 0 6 7 10 15 3 8 1 15 -4 15 -6 0 -10
-7 -10 -15z"/>
<path d="M2227 2322 c-32 -87 -57 -174 -56 -193 0 -30 1 -32 9 -11 11 27 11
27 130 40 52 6 142 25 200 42 58 18 111 32 118 32 7 1 10 8 7 15 -3 8 -5 17
-5 19 0 2 -7 4 -16 4 -16 0 -288 182 -299 200 -18 29 -36 -2 -88 -148z m306
-43 l37 -27 -39 -16 c-79 -31 -321 -70 -321 -52 0 2 21 61 46 130 l46 126 96
-67 c54 -37 114 -79 135 -94z"/>
<path d="M2221 2444 c0 -11 3 -14 6 -6 3 7 2 16 -1 19 -3 4 -6 -2 -5 -13z"/>
<path d="M2106 2125 c-9 -26 -7 -32 5 -12 6 10 9 21 6 23 -2 3 -7 -2 -11 -11z"/>
<path d="M2066 2033 c-6 -14 -5 -15 5 -6 7 7 10 15 7 18 -3 3 -9 -2 -12 -12z"/>
<path d="M2010 1930 c-6 -11 -8 -20 -6 -20 3 0 10 9 16 20 6 11 8 20 6 20 -3
0 -10 -9 -16 -20z"/>
<path d="M1929 1813 c-13 -16 -12 -17 4 -4 9 7 17 15 17 17 0 8 -8 3 -21 -13z"/>
</g>
</svg>
